<?xml version="1.0" standalone="no"?>
<!DOCTYPE svg PUBLIC "-//W3C//DTD SVG 20010904//EN"
 "http://www.w3.org/TR/2001/REC-SVG-20010904/DTD/svg10.dtd">
<svg version="1.0" xmlns="http://www.w3.org/2000/svg"
 width="400.000000pt" height="400.000000pt" viewBox="0 0 400.000000 400.000000"
 preserveAspectRatio="xMidYMid meet">

<g transform="translate(0.000000,400.000000) scale(0.100000,-0.100000)"
fill="#000000" stroke="none">
<path d="M578 1925 l2 -1635 1093 0 1092 0 50 45 50 44 -1102 1 -1103 0 0
1545 0 1545 1330 0 1330 0 2 -1330 3 -1330 38 31 37 30 0 1345 0 1344 -1412 0
-1413 0 3 -1635z"/>
<path d="M890 3180 l0 -40 78 0 c103 0 172 -21 221 -68 69 -66 66 -16 66
-1132 0 -553 -4 -1026 -8 -1052 -11 -64 -71 -131 -135 -152 -26 -8 -86 -18
-134 -22 l-88 -7 0 -33 0 -34 1002 2 1001 3 8 25 c26 84 127 406 165 524 24
76 41 142 38 147 -3 5 -18 9 -33 9 -23 0 -32 -7 -46 -37 -139 -304 -258 -431
-441 -477 -129 -33 -548 -47 -761 -27 -105 11 -134 25 -166 85 l-22 41 0 995
c0 928 1 998 18 1046 38 109 153 164 345 164 l62 0 0 40 0 40 -585 0 -585 0 0
-40z"/>
</g>
</svg>
